<mxfile host="app.diagrams.net" modified="2024-03-11T16:38:42.582Z" agent="Mozilla/5.0 (Windows NT 10.0; Win64; x64) AppleWebKit/537.36 (KHTML, like Gecko) Chrome/122.0.0.0 Safari/537.36" etag="C-1eZa_6siT-1GXQrspb" version="24.0.1" type="github">
  <diagram name="Sivu-1" id="IyLeD_b5kFzdyhTzBFzn">
    <mxGraphModel dx="1235" dy="727" grid="1" gridSize="10" guides="1" tooltips="1" connect="1" arrows="1" fold="1" page="1" pageScale="1" pageWidth="827" pageHeight="1169" math="0" shadow="0">
      <root>
        <mxCell id="0" />
        <mxCell id="1" parent="0" />
        <mxCell id="EUqRGTjkamGqEglYHBMg-1" value="" style="ellipse;html=1;shape=startState;fillColor=#000000;strokeColor=#ff0000;" vertex="1" parent="1">
          <mxGeometry x="350" y="10" width="30" height="30" as="geometry" />
        </mxCell>
        <mxCell id="EUqRGTjkamGqEglYHBMg-8" value="" style="endArrow=open;endFill=1;endSize=12;html=1;rounded=0;entryX=0.5;entryY=0;entryDx=0;entryDy=0;" edge="1" parent="1" target="EUqRGTjkamGqEglYHBMg-20">
          <mxGeometry width="160" relative="1" as="geometry">
            <mxPoint x="365.96955251672864" y="39.99581728252728" as="sourcePoint" />
            <mxPoint x="364.04" y="140" as="targetPoint" />
          </mxGeometry>
        </mxCell>
        <mxCell id="EUqRGTjkamGqEglYHBMg-12" value="Resepti-sivu" style="rounded=0;whiteSpace=wrap;html=1;fillColor=#b0e3e6;strokeColor=#0e8088;" vertex="1" parent="1">
          <mxGeometry x="30" y="10" width="100" height="30" as="geometry" />
        </mxCell>
        <mxCell id="EUqRGTjkamGqEglYHBMg-15" value="" style="endArrow=open;endFill=1;endSize=12;html=1;rounded=0;entryX=0;entryY=0.25;entryDx=0;entryDy=0;exitX=1;exitY=0.5;exitDx=0;exitDy=0;" edge="1" parent="1" source="EUqRGTjkamGqEglYHBMg-14" target="EUqRGTjkamGqEglYHBMg-19">
          <mxGeometry width="160" relative="1" as="geometry">
            <mxPoint x="450" y="270" as="sourcePoint" />
            <mxPoint x="602.62" y="414.8" as="targetPoint" />
            <Array as="points" />
          </mxGeometry>
        </mxCell>
        <mxCell id="EUqRGTjkamGqEglYHBMg-16" value="Kyllä" style="edgeLabel;html=1;align=center;verticalAlign=middle;resizable=0;points=[];fontStyle=1;fontSize=13;fontColor=#007FFF;" vertex="1" connectable="0" parent="EUqRGTjkamGqEglYHBMg-15">
          <mxGeometry x="-0.0762" y="-1" relative="1" as="geometry">
            <mxPoint as="offset" />
          </mxGeometry>
        </mxCell>
        <mxCell id="EUqRGTjkamGqEglYHBMg-17" value="Ei" style="endArrow=open;endFill=1;endSize=12;html=1;rounded=0;exitX=0;exitY=0.5;exitDx=0;exitDy=0;entryX=0.5;entryY=0;entryDx=0;entryDy=0;fontSize=13;fontStyle=1;fontColor=#FF3333;" edge="1" parent="1" source="EUqRGTjkamGqEglYHBMg-14" target="EUqRGTjkamGqEglYHBMg-21">
          <mxGeometry width="160" relative="1" as="geometry">
            <mxPoint x="310" y="320" as="sourcePoint" />
            <mxPoint x="190" y="310" as="targetPoint" />
            <Array as="points" />
          </mxGeometry>
        </mxCell>
        <mxCell id="EUqRGTjkamGqEglYHBMg-19" value="Lisää uusi resepti/&lt;br&gt;Poista resepti/Muokkaa reseptiä" style="rounded=1;whiteSpace=wrap;html=1;fillColor=#eeeeee;strokeColor=#36393d;" vertex="1" parent="1">
          <mxGeometry x="550" y="260" width="130" height="70" as="geometry" />
        </mxCell>
        <mxCell id="EUqRGTjkamGqEglYHBMg-20" value="Listaa reseptit" style="rounded=1;whiteSpace=wrap;html=1;fillColor=#eeeeee;strokeColor=#36393d;" vertex="1" parent="1">
          <mxGeometry x="305" y="100" width="120" height="50" as="geometry" />
        </mxCell>
        <mxCell id="EUqRGTjkamGqEglYHBMg-21" value="Reseptien selailu ilman lisäys/muokkaus/poisto toimintoa" style="rounded=1;whiteSpace=wrap;html=1;fillColor=#eeeeee;strokeColor=#36393d;" vertex="1" parent="1">
          <mxGeometry x="20" y="490" width="200" height="110" as="geometry" />
        </mxCell>
        <mxCell id="EUqRGTjkamGqEglYHBMg-22" value="" style="endArrow=open;endFill=1;endSize=12;html=1;rounded=0;exitX=0.5;exitY=1;exitDx=0;exitDy=0;" edge="1" parent="1" source="EUqRGTjkamGqEglYHBMg-14">
          <mxGeometry width="160" relative="1" as="geometry">
            <mxPoint x="364.5" y="190" as="sourcePoint" />
            <mxPoint x="365" y="230" as="targetPoint" />
          </mxGeometry>
        </mxCell>
        <mxCell id="EUqRGTjkamGqEglYHBMg-24" value="" style="line;strokeWidth=4;html=1;perimeter=backbonePerimeter;points=[];outlineConnect=0;" vertex="1" parent="1">
          <mxGeometry x="290" y="670" width="505" height="10" as="geometry" />
        </mxCell>
        <mxCell id="EUqRGTjkamGqEglYHBMg-26" value="Tallenna muutokset" style="rounded=1;whiteSpace=wrap;html=1;fillColor=#cce5ff;strokeColor=#36393d;" vertex="1" parent="1">
          <mxGeometry x="455" y="730" width="120" height="60" as="geometry" />
        </mxCell>
        <mxCell id="EUqRGTjkamGqEglYHBMg-28" value="Päivitä muutokset" style="rounded=1;whiteSpace=wrap;html=1;fillColor=#cdeb8b;strokeColor=#36393d;" vertex="1" parent="1">
          <mxGeometry x="650" y="570" width="120" height="60" as="geometry" />
        </mxCell>
        <mxCell id="EUqRGTjkamGqEglYHBMg-36" value="" style="line;strokeWidth=4;html=1;perimeter=backbonePerimeter;points=[];outlineConnect=0;" vertex="1" parent="1">
          <mxGeometry x="290" y="410" width="500" height="10" as="geometry" />
        </mxCell>
        <mxCell id="EUqRGTjkamGqEglYHBMg-37" value="" style="endArrow=open;endFill=1;endSize=12;html=1;rounded=0;" edge="1" parent="1" source="EUqRGTjkamGqEglYHBMg-19" target="EUqRGTjkamGqEglYHBMg-36">
          <mxGeometry width="160" relative="1" as="geometry">
            <mxPoint x="400" y="320" as="sourcePoint" />
            <mxPoint x="560" y="320" as="targetPoint" />
          </mxGeometry>
        </mxCell>
        <mxCell id="EUqRGTjkamGqEglYHBMg-39" value="Poista resepti" style="rounded=1;whiteSpace=wrap;html=1;fillColor=#ffcccc;strokeColor=#36393d;" vertex="1" parent="1">
          <mxGeometry x="475" y="470" width="120" height="60" as="geometry" />
        </mxCell>
        <mxCell id="EUqRGTjkamGqEglYHBMg-40" value="Muokkaa reseptiä" style="rounded=1;whiteSpace=wrap;html=1;fillColor=#cdeb8b;strokeColor=#36393d;" vertex="1" parent="1">
          <mxGeometry x="650" y="470" width="120" height="60" as="geometry" />
        </mxCell>
        <mxCell id="EUqRGTjkamGqEglYHBMg-41" value="Kirjaa reseptin ohjeet" style="rounded=1;whiteSpace=wrap;html=1;fillColor=#d0cee2;strokeColor=#56517e;" vertex="1" parent="1">
          <mxGeometry x="294" y="570" width="120" height="60" as="geometry" />
        </mxCell>
        <mxCell id="EUqRGTjkamGqEglYHBMg-42" value="Vahvista poisto" style="rounded=1;whiteSpace=wrap;html=1;fillColor=#ffcccc;strokeColor=#36393d;" vertex="1" parent="1">
          <mxGeometry x="475" y="570" width="120" height="60" as="geometry" />
        </mxCell>
        <mxCell id="EUqRGTjkamGqEglYHBMg-43" value="Lisää resepti" style="rounded=1;whiteSpace=wrap;html=1;labelBackgroundColor=none;fillColor=#d0cee2;strokeColor=#56517e;" vertex="1" parent="1">
          <mxGeometry x="294" y="470" width="120" height="60" as="geometry" />
        </mxCell>
        <mxCell id="EUqRGTjkamGqEglYHBMg-45" value="" style="endArrow=open;endFill=1;endSize=12;html=1;rounded=0;entryX=0.5;entryY=0;entryDx=0;entryDy=0;" edge="1" parent="1" source="EUqRGTjkamGqEglYHBMg-36" target="EUqRGTjkamGqEglYHBMg-40">
          <mxGeometry width="160" relative="1" as="geometry">
            <mxPoint x="280" y="440" as="sourcePoint" />
            <mxPoint x="440" y="440" as="targetPoint" />
          </mxGeometry>
        </mxCell>
        <mxCell id="EUqRGTjkamGqEglYHBMg-47" value="" style="endArrow=open;endFill=1;endSize=12;html=1;rounded=0;" edge="1" parent="1" source="EUqRGTjkamGqEglYHBMg-36" target="EUqRGTjkamGqEglYHBMg-43">
          <mxGeometry width="160" relative="1" as="geometry">
            <mxPoint x="480" y="360" as="sourcePoint" />
            <mxPoint x="440" y="440" as="targetPoint" />
            <Array as="points">
              <mxPoint x="370" y="470" />
            </Array>
          </mxGeometry>
        </mxCell>
        <mxCell id="EUqRGTjkamGqEglYHBMg-48" value="" style="endArrow=open;endFill=1;endSize=12;html=1;rounded=0;" edge="1" parent="1">
          <mxGeometry width="160" relative="1" as="geometry">
            <mxPoint x="709.41" y="530" as="sourcePoint" />
            <mxPoint x="709" y="570" as="targetPoint" />
          </mxGeometry>
        </mxCell>
        <mxCell id="EUqRGTjkamGqEglYHBMg-49" value="" style="endArrow=open;endFill=1;endSize=12;html=1;rounded=0;entryX=0.5;entryY=0;entryDx=0;entryDy=0;exitX=0.5;exitY=1;exitDx=0;exitDy=0;" edge="1" parent="1" source="EUqRGTjkamGqEglYHBMg-39" target="EUqRGTjkamGqEglYHBMg-42">
          <mxGeometry width="160" relative="1" as="geometry">
            <mxPoint x="529.41" y="516" as="sourcePoint" />
            <mxPoint x="529.41" y="570" as="targetPoint" />
          </mxGeometry>
        </mxCell>
        <mxCell id="EUqRGTjkamGqEglYHBMg-50" value="" style="endArrow=open;endFill=1;endSize=12;html=1;rounded=0;entryX=0.5;entryY=0;entryDx=0;entryDy=0;" edge="1" parent="1" source="EUqRGTjkamGqEglYHBMg-43" target="EUqRGTjkamGqEglYHBMg-41">
          <mxGeometry width="160" relative="1" as="geometry">
            <mxPoint x="364.41" y="530" as="sourcePoint" />
            <mxPoint x="364.41" y="584" as="targetPoint" />
          </mxGeometry>
        </mxCell>
        <mxCell id="EUqRGTjkamGqEglYHBMg-51" value="" style="endArrow=open;endFill=1;endSize=12;html=1;rounded=0;entryX=0.5;entryY=0;entryDx=0;entryDy=0;" edge="1" parent="1">
          <mxGeometry width="160" relative="1" as="geometry">
            <mxPoint x="529.41" y="416" as="sourcePoint" />
            <mxPoint x="529.41" y="470" as="targetPoint" />
          </mxGeometry>
        </mxCell>
        <mxCell id="EUqRGTjkamGqEglYHBMg-53" value="" style="endArrow=open;endFill=1;endSize=12;html=1;rounded=0;" edge="1" parent="1" target="EUqRGTjkamGqEglYHBMg-24">
          <mxGeometry width="160" relative="1" as="geometry">
            <mxPoint x="709" y="630" as="sourcePoint" />
            <mxPoint x="709.41" y="680" as="targetPoint" />
          </mxGeometry>
        </mxCell>
        <mxCell id="EUqRGTjkamGqEglYHBMg-54" value="" style="endArrow=open;endFill=1;endSize=12;html=1;rounded=0;exitX=0.5;exitY=1;exitDx=0;exitDy=0;" edge="1" parent="1" source="EUqRGTjkamGqEglYHBMg-41" target="EUqRGTjkamGqEglYHBMg-24">
          <mxGeometry width="160" relative="1" as="geometry">
            <mxPoint x="353.41" y="616" as="sourcePoint" />
            <mxPoint x="353.41" y="670" as="targetPoint" />
          </mxGeometry>
        </mxCell>
        <mxCell id="EUqRGTjkamGqEglYHBMg-55" value="" style="endArrow=open;endFill=1;endSize=12;html=1;rounded=0;exitX=0.5;exitY=1;exitDx=0;exitDy=0;" edge="1" parent="1" source="EUqRGTjkamGqEglYHBMg-42" target="EUqRGTjkamGqEglYHBMg-24">
          <mxGeometry width="160" relative="1" as="geometry">
            <mxPoint x="529.41" y="626" as="sourcePoint" />
            <mxPoint x="529.41" y="680" as="targetPoint" />
          </mxGeometry>
        </mxCell>
        <mxCell id="EUqRGTjkamGqEglYHBMg-57" value="" style="ellipse;html=1;shape=endState;fillColor=#000000;strokeColor=#ff0000;" vertex="1" parent="1">
          <mxGeometry x="490" y="880" width="30" height="30" as="geometry" />
        </mxCell>
        <mxCell id="EUqRGTjkamGqEglYHBMg-58" value="" style="endArrow=open;endFill=1;endSize=12;html=1;rounded=0;" edge="1" parent="1">
          <mxGeometry width="160" relative="1" as="geometry">
            <mxPoint x="514.41" y="790" as="sourcePoint" />
            <mxPoint x="514.41" y="873" as="targetPoint" />
          </mxGeometry>
        </mxCell>
        <mxCell id="EUqRGTjkamGqEglYHBMg-59" value="" style="endArrow=open;endFill=1;endSize=12;html=1;rounded=0;exitX=0.5;exitY=1;exitDx=0;exitDy=0;" edge="1" parent="1" source="EUqRGTjkamGqEglYHBMg-20" target="EUqRGTjkamGqEglYHBMg-14">
          <mxGeometry width="160" relative="1" as="geometry">
            <mxPoint x="365" y="150" as="sourcePoint" />
            <mxPoint x="365" y="230" as="targetPoint" />
          </mxGeometry>
        </mxCell>
        <mxCell id="EUqRGTjkamGqEglYHBMg-14" value="Kirjautunut käyttäjä" style="rhombus;whiteSpace=wrap;html=1;fillColor=#eeeeee;strokeColor=#36393d;" vertex="1" parent="1">
          <mxGeometry x="275" y="230" width="180" height="80" as="geometry" />
        </mxCell>
        <mxCell id="EUqRGTjkamGqEglYHBMg-60" value="" style="endArrow=open;endFill=1;endSize=12;html=1;rounded=0;exitX=0.5;exitY=1;exitDx=0;exitDy=0;" edge="1" parent="1" source="EUqRGTjkamGqEglYHBMg-21">
          <mxGeometry width="160" relative="1" as="geometry">
            <mxPoint x="280" y="890" as="sourcePoint" />
            <mxPoint x="490" y="880" as="targetPoint" />
          </mxGeometry>
        </mxCell>
        <mxCell id="EUqRGTjkamGqEglYHBMg-63" value="" style="endArrow=open;endFill=1;endSize=12;html=1;rounded=0;entryX=0.403;entryY=0.046;entryDx=0;entryDy=0;entryPerimeter=0;" edge="1" parent="1" source="EUqRGTjkamGqEglYHBMg-24" target="EUqRGTjkamGqEglYHBMg-26">
          <mxGeometry width="160" relative="1" as="geometry">
            <mxPoint x="499.99999999999994" y="670" as="sourcePoint" />
            <mxPoint x="499.99999999999994" y="753" as="targetPoint" />
          </mxGeometry>
        </mxCell>
      </root>
    </mxGraphModel>
  </diagram>
</mxfile>
